<?xml version="1.0" standalone="no"?>
<!DOCTYPE svg PUBLIC "-//W3C//DTD SVG 20010904//EN"
 "http://www.w3.org/TR/2001/REC-SVG-20010904/DTD/svg10.dtd">
<svg version="1.0" xmlns="http://www.w3.org/2000/svg"
 width="487.000000pt" height="260.000000pt" viewBox="0 0 487.000000 260.000000"
 preserveAspectRatio="xMidYMid meet">

<g transform="translate(0.000000,260.000000) scale(0.100000,-0.100000)"
fill="#000000" stroke="none">
<path d="M1987 2534 c-203 -44 -644 -227 -1132 -470 -330 -165 -527 -291 -569
-362 -19 -34 -19 -34 3 -55 21 -21 29 -22 224 -22 192 1 389 17 432 37 13 5
-9 7 -60 3 -441 -29 -501 -29 -540 -1 -16 12 -15 15 14 48 113 129 720 451
1226 651 634 250 706 191 331 -272 -123 -152 -140 -172 -391 -461 -246 -283
-264 -301 -400 -393 -280 -188 -458 -329 -610 -482 -136 -137 -219 -240 -336
-413 -102 -152 -139 -220 -139 -257 0 -21 5 -25 28 -25 15 0 41 9 58 19 74 45
585 565 961 977 l193 211 67 6 c104 10 141 8 173 -8 50 -26 42 -61 -55 -225
-100 -169 -125 -231 -125 -305 0 -64 29 -107 87 -126 54 -17 153 -6 217 25 81
40 191 156 147 156 -5 0 -30 -22 -56 -49 -120 -125 -279 -147 -322 -44 -28 68
-8 133 91 301 126 213 136 247 84 285 -23 17 -47 21 -144 25 -111 4 -115 5
-97 22 10 10 108 70 218 133 838 479 1612 810 2225 950 229 53 344 68 557 74
194 6 296 -2 417 -33 59 -15 98 -12 80 6 -5 5 -52 19 -104 31 -136 30 -435 37
-625 15 -630 -73 -1449 -387 -2428 -932 -125 -69 -230 -124 -233 -121 -3 2 88
112 202 243 425 491 554 670 554 769 0 49 -7 61 -43 74 -37 14 -97 13 -180 -5z
m-877 -1364 c0 -14 -289 -327 -596 -645 -256 -265 -349 -353 -361 -342 -7 8
69 131 159 259 136 193 326 396 498 533 67 53 286 205 296 205 2 0 4 -4 4 -10z"/>
<path d="M2645 1463 c-36 -9 -199 -90 -261 -131 -118 -77 -264 -233 -264 -283
0 -47 98 -64 196 -34 42 12 81 33 226 122 4 2 5 -10 2 -26 -17 -81 29 -109
138 -86 35 7 71 16 81 20 12 5 17 2 17 -9 0 -23 33 -36 95 -36 73 0 148 27
247 90 l81 51 -6 -38 c-14 -85 46 -106 195 -68 21 5 26 3 25 -12 -2 -14 6 -19
33 -21 30 -2 51 8 137 67 124 86 340 211 365 211 27 0 22 -14 -28 -82 -52 -70
-74 -115 -74 -152 0 -66 139 -42 340 59 124 63 230 145 186 145 -7 0 -60 -23
-117 -51 -180 -89 -279 -119 -279 -86 0 8 29 51 65 97 99 127 100 166 4 164
-42 -1 -80 -13 -168 -52 -63 -28 -117 -49 -119 -47 -3 2 9 25 26 51 30 47 32
74 5 74 -31 0 -72 -32 -142 -110 -86 -95 -192 -173 -266 -196 -96 -31 -109 0
-44 108 44 73 45 98 4 98 -33 0 -68 -18 -190 -100 -211 -142 -292 -160 -190
-44 84 97 293 234 356 234 12 0 33 -10 46 -22 22 -21 26 -21 51 -7 19 10 28
24 30 47 5 53 -12 65 -90 60 -59 -3 -83 -11 -190 -66 -127 -63 -266 -165 -315
-228 -40 -53 -150 -103 -195 -88 -26 8 -19 38 34 125 22 38 37 73 33 80 -18
28 -87 0 -230 -94 -150 -99 -209 -127 -227 -109 -13 13 85 119 167 182 69 53
199 120 233 120 15 0 35 -9 45 -20 21 -25 28 -25 61 1 28 22 33 48 16 80 -9
16 -21 19 -68 18 -31 -1 -66 -4 -77 -6z"/>
<path d="M3715 841 c-8 -15 3 -31 21 -31 9 0 14 7 12 17 -4 20 -24 28 -33 14z"/>
<path d="M2148 758 c-9 -25 4 -38 38 -38 l34 0 0 -119 c0 -124 6 -140 45 -125
12 5 15 29 15 125 l0 119 36 0 c31 0 35 3 32 23 -3 21 -8 22 -99 25 -72 2 -98
-1 -101 -10z"/>
<path d="M2684 757 c-2 -7 -3 -74 -2 -148 l3 -134 85 0 c81 0 85 1 88 23 3 21
0 22 -57 22 l-61 0 0 39 c0 39 1 40 38 43 25 2 37 8 37 18 0 10 -12 16 -37 18
-37 3 -38 4 -38 43 l0 39 60 0 c57 0 60 1 60 25 0 25 -1 25 -85 25 -61 0 -87
-4 -91 -13z"/>
<path d="M3177 764 c-4 -4 -7 -15 -7 -25 0 -13 9 -19 38 -21 l37 -3 5 -120 c5
-112 6 -120 25 -120 19 0 20 8 25 120 l5 120 35 5 c27 4 35 10 35 25 0 18 -8
20 -95 23 -53 1 -99 0 -103 -4z"/>
<path d="M3713 763 c-10 -3 -13 -42 -13 -143 0 -144 5 -159 45 -144 13 5 15
28 13 148 -3 145 -6 156 -45 139z"/>
<path d="M4113 763 c-10 -3 -13 -42 -13 -143 0 -113 3 -139 15 -144 30 -11 45
5 45 48 0 73 13 75 59 7 42 -62 59 -72 80 -48 8 11 0 31 -35 86 l-47 72 30 37
c43 54 46 61 33 77 -20 24 -27 19 -75 -47 l-45 -62 0 56 c0 42 -4 57 -16 62
-9 3 -16 6 -17 5 -1 0 -8 -3 -14 -6z"/>
</g>
</svg>
